<?xml version="1.0" standalone="no"?>
<!DOCTYPE svg PUBLIC "-//W3C//DTD SVG 1.1//EN" "http://www.w3.org/Graphics/SVG/1.1/DTD/svg11.dtd" >
<svg xmlns="http://www.w3.org/2000/svg" xmlns:xlink="http://www.w3.org/1999/xlink" version="1.1">
<metadata>
Created by FontForge 20170731 at Thu Nov 26 12:52:32 2020
 By Aleksey,,,
</metadata>
<defs>
<font id="3Dventure" horiz-adv-x="1280" >
  <font-face 
    font-family="3Dventure"
    font-weight="500"
    font-stretch="normal"
    units-per-em="2048"
    panose-1="2 0 6 3 0 0 0 0 0 0"
    ascent="1536"
    descent="-512"
    x-height="1152"
    cap-height="1152"
    bbox="0 -384 1664 1536"
    underline-thickness="102"
    underline-position="-508"
    unicode-range="U+000D-E0FF"
  />
<missing-glyph horiz-adv-x="748" 
d="M68 0v1364h544v-1364h-544zM136 68h408v1228h-408v-1228z" />
    <glyph glyph-name=".notdef" horiz-adv-x="748" 
d="M68 0v1364h544v-1364h-544zM136 68h408v1228h-408v-1228z" />
    <glyph glyph-name=".null" horiz-adv-x="0" 
 />
    <glyph glyph-name=".null" horiz-adv-x="0" 
 />
    <glyph glyph-name="nonmarkingreturn" unicode="&#xd;" horiz-adv-x="682" 
 />
    <glyph glyph-name="glyph3" horiz-adv-x="748" 
d="M68 0v1364h544v-1364h-544zM136 68h408v1228h-408v-1228z" />
    <glyph glyph-name="space" unicode=" " horiz-adv-x="640" 
 />
    <glyph glyph-name="exclam" unicode="!" horiz-adv-x="768" 
d="M512 0h-128h-128h-128v128h-128v128v128v128v128v128v128v128v128h128h128h128h128v-128h128v-128v-128v-128v-128v-128v-128v-128v-128h-128zM384 128h128v128h-128h-128v-128h128zM384 384h128v128v128v128v128h-128h-128v-128v-128v-128v-128h128z" />
    <glyph glyph-name="quotedbl" unicode="&#x22;" horiz-adv-x="1408" 
d="M1024 384h-128h-128h-128h-128h-128h-128h-128v128h-128v128v128v128h128v128v128h128h128h128h128h128h128h128h128v-128h128v-128v-128v-128v-128h-128v-128h-128zM896 512h128v128h128v128v128h-128h-128v-128v-128h-128v-128h128zM384 512h128v128h128v128v128h-128
h-128v-128v-128h-128v-128h128z" />
    <glyph glyph-name="numbersign" unicode="#" 
d="M1024 0h-128h-128h-128h-128h-128h-128h-128v128h-128v128v128v128v128v128v128v128v128h128h128h128h128h128h128h128h128v-128h128v-128v-128v-128v-128v-128v-128v-128v-128h-128zM896 128v128h128v128h-128v128v128h128v128h-128v128h-128v-128h-128h-128v128h-128
v-128h-128v-128h128v-128v-128h-128v-128h128v-128h128v128h128h128v-128h128zM640 384h-128v128v128h128h128v-128v-128h-128z" />
    <glyph glyph-name="dollar" unicode="$" 
d="M768 -128h-128h-128h-128v128h-128h-128v128h-128v128v128v128v128v128v128v128v128h128h128v128h128h128h128h128v-128h128h128v-128h128v-128v-128v-128v-128v-128v-128v-128v-128h-128h-128v-128h-128zM640 0h128v128h128h128v128v128v128v128h-128h-128h-128h-128
v128h128h128h128h128v128h-128h-128v128h-128h-128v-128h-128h-128v-128v-128v-128v-128h128h128h128h128v-128h-128h-128h-128h-128v-128h128h128v-128h128z" />
    <glyph glyph-name="percent" unicode="%" 
d="M1024 0h-128h-128h-128h-128h-128h-128h-128v128h-128v128v128v128v128v128v128v128v128h128h128h128h128h128h128h128h128v-128h128v-128v-128v-128v-128v-128v-128v-128v-128h-128zM896 128h128v128v128h-128h-128v-128v-128h128zM384 128v128h-128v-128h128zM512 256
v128h-128v-128h128zM640 384v128h-128v-128h128zM768 512v128h-128v-128h128zM384 640h128v128v128h-128h-128v-128v-128h128zM896 640v128h-128v-128h128zM1024 768v128h-128v-128h128z" />
    <glyph glyph-name="ampersand" unicode="&#x26;" 
d="M768 -128h-128h-128h-128v128h-128h-128v128h-128v128v128v128v128v128v128v128v128h128h128v128h128h128h128h128v-128h128h128v-128h128v-128v-128v-128v-128v-128v-128v-128v-128h-128h-128v-128h-128zM640 0h128v128h128h128v128h-128h-128h-128h-128v128h128h128
h128h128v128v128h-128h-128h-128h-128v128h128h128h128h128v128h-128h-128v128h-128h-128v-128h-128h-128v-128v-128v-128v-128v-128v-128h128h128v-128h128z" />
    <glyph glyph-name="quotesingle" unicode="'" horiz-adv-x="768" 
d="M512 384h-128h-128h-128v128h-128v128v128v128v128v128h128h128h128h128v-128h128v-128v-128v-128v-128v-128h-128zM384 512h128v128v128v128h-128h-128v-128v-128v-128h128z" />
    <glyph glyph-name="parenleft" unicode="(" horiz-adv-x="896" 
d="M640 0h-128h-128h-128v128h-128v128h-128v128v128v128v128v128v128h128v128h128h128h128h128v-128h128v-128v-128v-128h-128v-128v-128h128v-128v-128v-128h-128zM512 128h128v128h-128v128v128v128v128h128v128h-128h-128v-128h-128v-128v-128v-128v-128h128v-128h128z
" />
    <glyph glyph-name="parenright" unicode=")" horiz-adv-x="896" 
d="M512 0h-128h-128h-128v128h-128v128v128v128h128v128v128h-128v128v128v128h128h128h128h128v-128h128v-128h128v-128v-128v-128v-128v-128v-128h-128v-128h-128zM384 128h128v128h128v128v128v128v128h-128v128h-128h-128v-128h128v-128v-128v-128v-128h-128v-128h128z
" />
    <glyph glyph-name="asterisk" unicode="*" horiz-adv-x="896" 
d="M640 384h-128h-128h-128h-128v128h-128v128v128v128v128v128h128h128h128h128h128v-128h128v-128v-128v-128v-128v-128h-128zM640 512v128h-128v128h-128v128h-128v-128h128v-128h-128v-128h128v128h128v-128h128zM640 768v128h-128v-128h128z" />
    <glyph glyph-name="plus" unicode="+" 
d="M768 0h-128h-128h-128v128h-128v128h-128v128h-128v128v128v128v128h128h128v128v128h128h128h128h128v-128h128v-128v-128h128h128v-128v-128v-128v-128h-128h-128v-128v-128h-128zM640 128h128v128v128h128h128v128v128h-128h-128v128v128h-128h-128v-128v-128h-128
h-128v-128v-128h128h128v-128v-128h128z" />
    <glyph glyph-name="comma" unicode="," horiz-adv-x="896" 
d="M512 0h-128h-128h-128v128h-128v128v128v128h128v128v128h128h128h128h128v-128h128v-128v-128v-128v-128h-128v-128h-128zM384 128h128v128h128v128v128h-128h-128v-128v-128h-128v-128h128z" />
    <glyph glyph-name="hyphen" unicode="-" 
d="M1024 256h-128h-128h-128h-128h-128h-128h-128v128h-128v128v128v128v128h128h128h128h128h128h128h128h128v-128h128v-128v-128v-128v-128h-128zM896 384h128v128v128h-128h-128h-128h-128h-128h-128v-128v-128h128h128h128h128h128z" />
    <glyph glyph-name="period" unicode="." horiz-adv-x="768" 
d="M512 0h-128h-128h-128v128h-128v128v128v128v128h128h128h128h128v-128h128v-128v-128v-128v-128h-128zM384 128h128v128v128h-128h-128v-128v-128h128z" />
    <glyph glyph-name="slash" unicode="/" 
d="M384 0h-128h-128v128h-128v128v128v128h128v128h128v128h128v128h128v128h128v128h128h128h128v-128h128v-128v-128v-128h-128v-128h-128v-128h-128v-128h-128v-128h-128v-128h-128zM384 128v128h-128v-128h128zM512 256v128h-128v-128h128zM640 384v128h-128v-128h128z
M768 512v128h-128v-128h128zM896 640v128h-128v-128h128zM1024 768v128h-128v-128h128z" />
    <glyph glyph-name="zero" unicode="0" 
d="M1024 0h-128h-128h-128h-128h-128h-128h-128v128h-128v128v128v128v128v128v128v128v128h128h128h128h128h128h128h128h128v-128h128v-128v-128v-128v-128v-128v-128v-128v-128h-128zM896 128h128v128v128v128v128v128v128h-128h-128h-128h-128h-128h-128v-128v-128v-128
v-128v-128v-128h128h128h128h128h128zM640 256h-128v128v128v128v128h128h128v-128v-128v-128v-128h-128z" />
    <glyph glyph-name="one" unicode="1" 
d="M1024 0h-128h-128h-128h-128h-128h-128h-128v128h-128v128v128v128h128h128v128h-128v128h-128v128v128v128h128h128h128h128h128h128v-128h128v-128v-128v-128v-128h128v-128h128v-128v-128v-128h-128zM896 128h128v128h-128h-128v128v128v128v128v128h-128h-128h-128
h-128v-128h128h128v-128v-128v-128v-128h-128h-128v-128h128h128h128h128h128z" />
    <glyph glyph-name="two" unicode="2" 
d="M1024 0h-128h-128h-128h-128h-128h-128h-128v128h-128v128v128v128v128v128v128v128v128h128h128h128h128h128h128h128h128v-128h128v-128v-128v-128v-128v-128v-128v-128v-128h-128zM896 128h128v128h-128h-128h-128h-128v128h128h128h128h128v128v128v128v128h-128
h-128h-128h-128h-128h-128v-128h128h128h128h128v-128h-128h-128h-128h-128v-128v-128v-128v-128h128h128h128h128h128z" />
    <glyph glyph-name="three" unicode="3" 
d="M1024 0h-128h-128h-128h-128h-128h-128h-128v128h-128v128v128v128v128v128v128v128v128h128h128h128h128h128h128h128h128v-128h128v-128v-128v-128v-128v-128v-128v-128v-128h-128zM896 128h128v128v128v128v128v128v128h-128h-128h-128h-128h-128h-128v-128h128h128
h128h128v-128h-128h-128h-128h-128v-128v-128h128h128h128h128v-128h-128h-128h-128h-128v-128h128h128h128h128h128z" />
    <glyph glyph-name="four" unicode="4" 
d="M1024 0h-128h-128h-128v128h-128v128v128h-128h-128h-128v128h-128v128v128v128v128v128h128h128h128h128h128h128h128h128v-128h128v-128v-128v-128v-128v-128v-128v-128v-128h-128zM896 128h128v128v128v128v128v128v128h-128h-128v-128v-128h-128h-128v128v128h-128
h-128v-128v-128v-128h128h128h128h128v-128v-128v-128h128z" />
    <glyph glyph-name="five" unicode="5" 
d="M1024 0h-128h-128h-128h-128h-128h-128h-128v128h-128v128v128v128v128v128v128v128v128h128h128h128h128h128h128h128h128v-128h128v-128v-128v-128v-128v-128v-128v-128v-128h-128zM896 128h128v128v128v128v128h-128h-128h-128h-128v128h128h128h128h128v128h-128
h-128h-128h-128h-128h-128v-128v-128v-128v-128h128h128h128h128v-128h-128h-128h-128h-128v-128h128h128h128h128h128z" />
    <glyph glyph-name="six" unicode="6" 
d="M1024 0h-128h-128h-128h-128h-128h-128h-128v128h-128v128v128v128v128v128v128v128v128h128h128h128h128h128h128h128h128v-128h128v-128v-128v-128v-128v-128v-128v-128v-128h-128zM896 128h128v128v128v128v128h-128h-128h-128h-128v128h128h128h128h128v128h-128
h-128h-128h-128h-128h-128v-128v-128v-128v-128v-128v-128h128h128h128h128h128zM640 256h-128v128v128h128h128v-128v-128h-128z" />
    <glyph glyph-name="seven" unicode="7" 
d="M1024 0h-128h-128h-128v128h-128v128v128v128v128h-128h-128h-128v128h-128v128v128v128h128h128h128h128h128h128h128h128v-128h128v-128v-128v-128v-128v-128v-128v-128v-128h-128zM896 128h128v128v128v128v128v128v128h-128h-128h-128h-128h-128h-128v-128h128h128
h128h128v-128v-128v-128v-128v-128h128z" />
    <glyph glyph-name="eight" unicode="8" 
d="M1024 0h-128h-128h-128h-128h-128h-128h-128v128h-128v128v128v128v128v128v128v128v128h128h128h128h128h128h128h128h128v-128h128v-128v-128v-128v-128v-128v-128v-128v-128h-128zM896 128h128v128v128v128v128v128v128h-128h-128h-128h-128h-128h-128v-128v-128v-128
v-128v-128v-128h128h128h128h128h128zM640 256h-128v128v128h128h128v-128v-128h-128zM640 768h128v-128h-128h-128v128h128z" />
    <glyph glyph-name="nine" unicode="9" 
d="M1024 0h-128h-128h-128h-128h-128h-128h-128v128h-128v128v128v128v128v128v128v128v128h128h128h128h128h128h128h128h128v-128h128v-128v-128v-128v-128v-128v-128v-128v-128h-128zM896 128h128v128v128v128v128v128v128h-128h-128h-128h-128h-128h-128v-128v-128v-128
v-128h128h128h128h128v-128h-128h-128h-128h-128v-128h128h128h128h128h128zM640 512h-128v128v128h128h128v-128v-128h-128z" />
    <glyph glyph-name="colon" unicode=":" horiz-adv-x="768" 
d="M512 0h-128h-128h-128v128h-128v128v128v128v128v128v128v128v128h128h128h128h128v-128h128v-128v-128v-128v-128v-128v-128v-128v-128h-128zM384 128h128v128v128h-128h-128v-128v-128h128zM384 640h128v128v128h-128h-128v-128v-128h128z" />
    <glyph glyph-name="semicolon" unicode=";" horiz-adv-x="896" 
d="M512 0h-128h-128h-128v128h-128v128v128v128h128v128v128v128v128v128h128h128h128h128v-128h128v-128v-128v-128v-128v-128v-128v-128h-128v-128h-128zM384 128h128v128h128v128v128h-128h-128v-128v-128h-128v-128h128zM512 640h128v128v128h-128h-128v-128v-128h128z
" />
    <glyph glyph-name="less" unicode="&#x3c;" horiz-adv-x="896" 
d="M640 0h-128h-128v128h-128v128h-128v128h-128v128v128h128v128h128v128h128v128h128h128v-128h128v-128v-128v-128h-128v-128h128v-128v-128v-128h-128zM640 128v128h-128v128h-128v128h-128v-128h128v-128h128v-128h128zM512 512v128h-128v-128h128zM640 640v128h-128
v-128h128z" />
    <glyph glyph-name="equal" unicode="=" 
d="M1024 128h-128h-128h-128h-128h-128h-128h-128v128h-128v128v128v128v128v128h128h128h128h128h128h128h128h128v-128h128v-128v-128v-128v-128v-128h-128zM896 256h128v128h-128h-128h-128h-128h-128h-128v-128h128h128h128h128h128zM896 512h128v128h-128h-128h-128
h-128h-128h-128v-128h128h128h128h128h128z" />
    <glyph glyph-name="greater" unicode="&#x3e;" horiz-adv-x="896" 
d="M384 0h-128h-128v128h-128v128v128h128v128h-128v128v128v128v128h128h128h128v-128h128v-128h128v-128h128v-128v-128v-128h-128v-128h-128v-128h-128zM384 128v128h-128v-128h128zM512 256v128h-128v-128h128zM640 384v128h-128v128h-128v128h-128v-128h128v-128h128
v-128h128z" />
    <glyph glyph-name="question" unicode="?" 
d="M768 0h-128h-128h-128v128h-128v128v128v128v128h-128v128h-128v128v128v128h128h128h128h128h128h128h128h128v-128h128v-128v-128v-128v-128v-128h-128h-128v-128v-128v-128h-128zM640 128h128v128v128h-128h-128v-128v-128h128zM896 512h128v128v128v128h-128h-128
h-128h-128h-128h-128v-128h128h128h128h128v-128h-128h-128v-128h128h128h128z" />
    <glyph glyph-name="at" unicode="@" 
d="M1024 0h-128h-128h-128h-128h-128h-128h-128v128h-128v128v128v128v128v128v128v128v128h128h128h128h128h128h128h128h128v-128h128v-128v-128v-128v-128v-128v-128v-128v-128h-128zM896 128h128v128h-128h-128h-128h-128v128v128v128v128h128h128v-128h-128v-128v-128
h128h128h128v128v128v128v128h-128h-128h-128h-128h-128h-128v-128v-128v-128v-128v-128v-128h128h128h128h128h128z" />
    <glyph glyph-name="A" unicode="A" 
d="M1024 0h-128h-128h-128h-128h-128h-128h-128v128h-128v128v128v128v128v128v128v128v128h128h128h128h128h128h128h128h128v-128h128v-128v-128v-128v-128v-128v-128v-128v-128h-128zM896 128h128v128v128v128v128v128v128h-128h-128h-128h-128h-128h-128v-128v-128v-128
v-128v-128v-128h128h128v128v128h128h128v-128v-128h128zM640 512h-128v128v128h128h128v-128v-128h-128z" />
    <glyph glyph-name="B" unicode="B" 
d="M1024 0h-128h-128h-128h-128h-128h-128h-128v128h-128v128v128v128v128v128v128v128v128h128h128h128h128h128h128h128h128v-128h128v-128v-128v-128v-128v-128v-128v-128v-128h-128zM896 128h128v128v128v128h-128v128h128v128v128h-128h-128h-128h-128h-128h-128v-128
v-128v-128v-128v-128v-128h128h128h128h128h128zM640 256h-128v128v128h128h128v-128v-128h-128zM640 768h128v-128h-128h-128v128h128z" />
    <glyph glyph-name="C" unicode="C" 
d="M1024 0h-128h-128h-128h-128h-128h-128h-128v128h-128v128v128v128v128v128v128v128v128h128h128h128h128h128h128h128h128v-128h128v-128v-128v-128h-128h-128h-128h-128v-128h128h128h128v-128h128v-128v-128v-128h-128zM896 128h128v128h-128h-128h-128h-128v128v128
v128v128h128h128h128h128v128h-128h-128h-128h-128h-128h-128v-128v-128v-128v-128v-128v-128h128h128h128h128h128z" />
    <glyph glyph-name="D" unicode="D" 
d="M896 0h-128h-128h-128h-128h-128h-128v128h-128v128v128v128v128v128v128v128v128h128h128h128h128h128h128h128v-128h128v-128h128v-128v-128v-128v-128v-128v-128h-128v-128h-128zM768 128h128v128h128v128v128v128v128h-128v128h-128h-128h-128h-128h-128v-128v-128
v-128v-128v-128v-128h128h128h128h128zM640 256h-128v128v128v128v128h128h128v-128v-128v-128v-128h-128z" />
    <glyph glyph-name="E" unicode="E" 
d="M1024 0h-128h-128h-128h-128h-128h-128h-128v128h-128v128v128v128v128v128v128v128v128h128h128h128h128h128h128h128h128v-128h128v-128v-128v-128v-128v-128v-128v-128v-128h-128zM896 128h128v128h-128h-128h-128h-128v128v128h128h128h128h128v128h-128h-128h-128
h-128v128h128h128h128h128v128h-128h-128h-128h-128h-128h-128v-128v-128v-128v-128v-128v-128h128h128h128h128h128z" />
    <glyph glyph-name="F" unicode="F" 
d="M512 0h-128h-128h-128v128h-128v128v128v128v128v128v128v128v128h128h128h128h128h128h128h128h128v-128h128v-128v-128v-128v-128v-128h-128h-128h-128h-128v-128v-128v-128h-128zM384 128h128v128v128v128h128h128h128h128v128h-128h-128h-128h-128v128h128h128h128
h128v128h-128h-128h-128h-128h-128h-128v-128v-128v-128v-128v-128v-128h128z" />
    <glyph glyph-name="G" unicode="G" 
d="M1024 0h-128h-128h-128h-128h-128h-128h-128v128h-128v128v128v128v128v128v128v128v128h128h128h128h128h128h128h128h128v-128h128v-128v-128v-128v-128v-128v-128v-128v-128h-128zM896 128h128v128v128v128v128h-128h-128h-128v-128h128v-128v-128h-128h-128v128v128
v128v128h128h128h128h128v128h-128h-128h-128h-128h-128h-128v-128v-128v-128v-128v-128v-128h128h128h128h128h128z" />
    <glyph glyph-name="H" unicode="H" 
d="M1024 0h-128h-128h-128h-128h-128h-128h-128v128h-128v128v128v128v128v128v128v128v128h128h128h128h128h128h128h128h128v-128h128v-128v-128v-128v-128v-128v-128v-128v-128h-128zM896 128h128v128v128v128v128v128v128h-128h-128v-128v-128h-128h-128v128v128h-128
h-128v-128v-128v-128v-128v-128v-128h128h128v128v128v128h128h128v-128v-128v-128h128z" />
    <glyph glyph-name="I" unicode="I" 
d="M1024 0h-128h-128h-128h-128h-128h-128h-128v128h-128v128v128v128h128h128h128v128h-128h-128v128h-128v128v128v128h128h128h128h128h128h128h128h128v-128h128v-128v-128v-128h-128h-128v-128h128v-128h128v-128v-128v-128h-128zM896 128h128v128h-128h-128v128v128
v128v128h128h128v128h-128h-128h-128h-128h-128h-128v-128h128h128v-128v-128v-128v-128h-128h-128v-128h128h128h128h128h128z" />
    <glyph glyph-name="J" unicode="J" 
d="M1024 0h-128h-128h-128h-128h-128h-128h-128v128h-128v128v128v128h128h128h128h128v128v128v128v128v128h128h128h128h128v-128h128v-128v-128v-128v-128v-128v-128v-128v-128h-128zM896 128h128v128v128v128v128v128v128h-128h-128v-128v-128v-128v-128v-128h-128h-128
h-128h-128v-128h128h128h128h128h128z" />
    <glyph glyph-name="K" unicode="K" 
d="M1024 0h-128h-128h-128h-128h-128h-128h-128v128h-128v128v128v128v128v128v128v128v128h128h128h128h128h128h128h128h128v-128h128v-128v-128v-128v-128v-128v-128v-128v-128h-128zM896 128h128v128v128v128h-128v128h128v128v128h-128h-128v-128v-128h-128h-128v128
v128h-128h-128v-128v-128v-128v-128v-128v-128h128h128v128v128v128h128h128v-128v-128v-128h128z" />
    <glyph glyph-name="L" unicode="L" 
d="M1024 0h-128h-128h-128h-128h-128h-128h-128v128h-128v128v128v128v128v128v128v128v128h128h128h128h128v-128h128v-128v-128v-128v-128h128h128h128v-128h128v-128v-128v-128h-128zM896 128h128v128h-128h-128h-128h-128v128v128v128v128v128h-128h-128v-128v-128v-128
v-128v-128v-128h128h128h128h128h128z" />
    <glyph glyph-name="M" unicode="M" horiz-adv-x="1536" 
d="M1280 0h-128h-128h-128h-128h-128h-128h-128h-128h-128v128h-128v128v128v128v128v128v128v128v128h128h128h128h128h128h128h128h128h128h128v-128h128v-128v-128v-128v-128v-128v-128v-128v-128h-128zM1152 128h128v128v128v128v128v128v128h-128h-128h-128h-128h-128
h-128h-128h-128v-128v-128v-128v-128v-128v-128h128h128v128v128v128v128v128h128v-128v-128v-128v-128v-128h128h128v128v128v128v128v128h128v-128v-128v-128v-128v-128h128z" />
    <glyph glyph-name="N" unicode="N" 
d="M1024 0h-128h-128h-128h-128h-128h-128h-128v128h-128v128v128v128v128v128v128v128v128h128h128h128h128h128h128h128h128v-128h128v-128v-128v-128v-128v-128v-128v-128v-128h-128zM896 128h128v128v128v128v128v128v128h-128h-128h-128h-128h-128h-128v-128v-128v-128
v-128v-128v-128h128h128v128v128v128v128v128h128h128v-128v-128v-128v-128v-128h128z" />
    <glyph glyph-name="O" unicode="O" 
d="M1024 0h-128h-128h-128h-128h-128h-128h-128v128h-128v128v128v128v128v128v128v128v128h128h128h128h128h128h128h128h128v-128h128v-128v-128v-128v-128v-128v-128v-128v-128h-128zM896 128h128v128v128v128v128v128v128h-128h-128h-128h-128h-128h-128v-128v-128v-128
v-128v-128v-128h128h128h128h128h128zM640 256h-128v128v128v128v128h128h128v-128v-128v-128v-128h-128z" />
    <glyph glyph-name="P" unicode="P" 
d="M512 0h-128h-128h-128v128h-128v128v128v128v128v128v128v128v128h128h128h128h128h128h128h128h128v-128h128v-128v-128v-128v-128v-128v-128h-128h-128h-128h-128v-128v-128h-128zM384 128h128v128v128h128h128h128h128v128v128v128v128h-128h-128h-128h-128h-128h-128
v-128v-128v-128v-128v-128v-128h128zM640 512h-128v128v128h128h128v-128v-128h-128z" />
    <glyph glyph-name="Q" unicode="Q" 
d="M1024 0h-128h-128h-128v128h-128h-128h-128h-128v128h-128v128v128v128v128v128v128v128h128h128h128h128h128h128h128h128v-128h128v-128v-128v-128v-128v-128v-128v-128v-128h-128zM896 128h128v128v128v128v128v128v128h-128h-128h-128h-128h-128h-128v-128v-128v-128
v-128v-128h128h128h128h128v-128h128zM640 384h-128v128v128v128h128h128v-128v-128v-128h-128z" />
    <glyph glyph-name="R" unicode="R" 
d="M1024 0h-128h-128h-128h-128h-128h-128h-128v128h-128v128v128v128v128v128v128v128v128h128h128h128h128h128h128h128h128v-128h128v-128v-128v-128v-128v-128v-128v-128v-128h-128zM896 128h128v128v128h-128v128h128v128v128v128h-128h-128h-128h-128h-128h-128v-128
v-128v-128v-128v-128v-128h128h128v128v128h128h128v-128v-128h128zM640 512h-128v128v128h128h128v-128v-128h-128z" />
    <glyph glyph-name="S" unicode="S" 
d="M1024 0h-128h-128h-128h-128h-128h-128h-128v128h-128v128v128v128v128v128v128v128v128h128h128h128h128h128h128h128h128v-128h128v-128v-128v-128v-128v-128v-128v-128v-128h-128zM896 128h128v128v128v128v128h-128h-128h-128h-128v128h128h128h128h128v128h-128
h-128h-128h-128h-128h-128v-128v-128v-128v-128h128h128h128h128v-128h-128h-128h-128h-128v-128h128h128h128h128h128z" />
    <glyph glyph-name="T" unicode="T" 
d="M768 0h-128h-128h-128v128h-128v128v128v128v128h-128v128h-128v128v128v128h128h128h128h128h128h128h128h128v-128h128v-128v-128v-128h-128h-128v-128v-128v-128v-128v-128h-128zM640 128h128v128v128v128v128v128h128h128v128h-128h-128h-128h-128h-128h-128v-128
h128h128v-128v-128v-128v-128v-128h128z" />
    <glyph glyph-name="U" unicode="U" 
d="M1024 0h-128h-128h-128h-128h-128h-128h-128v128h-128v128v128v128v128v128v128v128v128h128h128h128h128h128h128h128h128v-128h128v-128v-128v-128v-128v-128v-128v-128v-128h-128zM896 128h128v128v128v128v128v128v128h-128h-128v-128v-128v-128v-128v-128h-128h-128
v128v128v128v128v128h-128h-128v-128v-128v-128v-128v-128v-128h128h128h128h128h128z" />
    <glyph glyph-name="V" unicode="V" 
d="M768 0h-128h-128h-128v128h-128v128h-128v128h-128v128v128v128v128v128v128h128h128h128h128h128h128h128h128v-128h128v-128v-128v-128v-128v-128v-128h-128v-128h-128v-128h-128zM640 128h128v128h128v128h128v128v128v128v128h-128h-128v-128v-128v-128v-128h-128
h-128v128v128v128v128h-128h-128v-128v-128v-128v-128h128v-128h128v-128h128z" />
    <glyph glyph-name="W" unicode="W" horiz-adv-x="1536" 
d="M896 256v128v128v128v128v128h-128h-128v-128v-128v-128v-128v-128h-128v128v128v128v128v128h-128h-128v-128v-128v-128v-128v-128v-128h128h128h128h128h128h128h128h128v128v128v128v128v128v128h-128h-128v-128v-128v-128v-128v-128h-128zM1280 0h-128h-128h-128
h-128h-128h-128h-128h-128h-128v128h-128v128v128v128v128v128v128v128v128h128h128h128h128h128h128h128h128h128h128v-128h128v-128v-128v-128v-128v-128v-128v-128v-128h-128z" />
    <glyph glyph-name="X" unicode="X" 
d="M1024 0h-128h-128h-128h-128h-128h-128h-128v128h-128v128v128v128v128v128v128v128v128h128h128h128h128h128h128h128h128v-128h128v-128v-128v-128v-128v-128v-128v-128v-128h-128zM896 128h128v128v128v128h-128v128h128v128v128h-128h-128v-128v-128h-128h-128v128
v128h-128h-128v-128v-128h128v-128h-128v-128v-128v-128h128h128v128v128v128h128h128v-128v-128v-128h128z" />
    <glyph glyph-name="Y" unicode="Y" 
d="M768 0h-128h-128h-128v128h-128v128v128h-128v128h-128v128v128v128v128v128h128h128h128h128h128h128h128h128v-128h128v-128v-128v-128v-128v-128h-128h-128v-128v-128v-128h-128zM640 128h128v128v128v128h128h128v128v128v128h-128h-128v-128v-128h-128h-128v128v128
h-128h-128v-128v-128v-128h128h128v-128v-128v-128h128z" />
    <glyph glyph-name="Z" unicode="Z" 
d="M1024 0h-128h-128h-128h-128h-128h-128h-128v128h-128v128v128v128v128v128v128v128v128h128h128h128h128h128h128h128h128v-128h128v-128v-128v-128v-128v-128v-128v-128v-128h-128zM896 128h128v128h-128h-128h-128h-128h-128v128h128h128h128h128h128v128v128v128v128
h-128h-128h-128h-128h-128h-128v-128h128h128h128h128h128v-128h-128h-128h-128h-128h-128v-128v-128v-128v-128h128h128h128h128h128z" />
    <glyph glyph-name="bracketleft" unicode="[" horiz-adv-x="896" 
d="M640 0h-128h-128h-128h-128v128h-128v128v128v128v128v128v128v128v128h128h128h128h128h128v-128h128v-128v-128v-128h-128v-128v-128h128v-128v-128v-128h-128zM512 128h128v128h-128v128v128v128v128h128v128h-128h-128h-128v-128v-128v-128v-128v-128v-128h128h128z
" />
    <glyph glyph-name="backslash" unicode="\" 
d="M1024 0h-128h-128v128h-128v128h-128v128h-128v128h-128v128h-128v128h-128v128v128v128h128h128h128v-128h128v-128h128v-128h128v-128h128v-128h128v-128h128v-128v-128v-128h-128zM1024 128v128h-128v128h-128v128h-128v128h-128v128h-128v128h-128v-128h128v-128h128
v-128h128v-128h128v-128h128v-128h128z" />
    <glyph glyph-name="bracketright" unicode="]" horiz-adv-x="896" 
d="M640 0h-128h-128h-128h-128v128h-128v128v128v128h128h128v128h-128v128h-128v128v128v128h128h128h128h128h128v-128h128v-128v-128v-128v-128v-128v-128v-128v-128h-128zM512 128h128v128v128v128v128v128v128h-128h-128h-128v-128h128v-128v-128v-128v-128h-128v-128
h128h128z" />
    <glyph glyph-name="asciicircum" unicode="^" horiz-adv-x="1152" 
d="M896 384h-128h-128v128h-128v-128h-128h-128h-128v128h-128v128v128h128v128h128v128h128v128h128h128v-128h128v-128h128v-128h128v-128v-128v-128h-128zM896 512v128h-128v128h-128v128h-128v-128h-128v-128h-128v-128h128v128h128v128h128v-128h128v-128h128z" />
    <glyph glyph-name="underscore" unicode="_" 
d="M1024 -384h-128h-128h-128h-128h-128h-128h-128v128h-128v128v128v128h128h128h128h128h128h128h128h128v-128h128v-128v-128v-128h-128zM896 -256h128v128h-128h-128h-128h-128h-128h-128v-128h128h128h128h128h128z" />
    <glyph glyph-name="grave" unicode="`" horiz-adv-x="768" 
d="M512 512h-128h-128v128h-128v128h-128v128v128v128h128h128h128v-128h128v-128h128v-128v-128v-128h-128zM512 640v128h-128v128h-128v-128h128v-128h128z" />
    <glyph glyph-name="a" unicode="a" 
d="M1024 0h-128h-128h-128h-128h-128h-128h-128v128h-128v128v128v128v128v128v128v128v128h128h128h128h128h128h128h128h128v-128h128v-128v-128v-128v-128v-128v-128v-128v-128h-128zM896 128h128v128v128v128v128v128v128h-128h-128h-128h-128h-128h-128v-128v-128v-128
v-128v-128v-128h128h128v128v128h128h128v-128v-128h128zM640 512h-128v128v128h128h128v-128v-128h-128z" />
    <glyph glyph-name="b" unicode="b" 
d="M1024 0h-128h-128h-128h-128h-128h-128h-128v128h-128v128v128v128v128v128v128v128v128h128h128h128h128h128h128h128h128v-128h128v-128v-128v-128v-128v-128v-128v-128v-128h-128zM896 128h128v128v128v128h-128v128h128v128v128h-128h-128h-128h-128h-128h-128v-128
v-128v-128v-128v-128v-128h128h128h128h128h128zM640 256h-128v128v128h128h128v-128v-128h-128zM640 768h128v-128h-128h-128v128h128z" />
    <glyph glyph-name="c" unicode="c" 
d="M1024 0h-128h-128h-128h-128h-128h-128h-128v128h-128v128v128v128v128v128v128v128v128h128h128h128h128h128h128h128h128v-128h128v-128v-128v-128h-128h-128h-128h-128v-128h128h128h128v-128h128v-128v-128v-128h-128zM896 128h128v128h-128h-128h-128h-128v128v128
v128v128h128h128h128h128v128h-128h-128h-128h-128h-128h-128v-128v-128v-128v-128v-128v-128h128h128h128h128h128z" />
    <glyph glyph-name="d" unicode="d" 
d="M896 0h-128h-128h-128h-128h-128h-128v128h-128v128v128v128v128v128v128v128v128h128h128h128h128h128h128h128v-128h128v-128h128v-128v-128v-128v-128v-128v-128h-128v-128h-128zM768 128h128v128h128v128v128v128v128h-128v128h-128h-128h-128h-128h-128v-128v-128
v-128v-128v-128v-128h128h128h128h128zM640 256h-128v128v128v128v128h128h128v-128v-128v-128v-128h-128z" />
    <glyph glyph-name="e" unicode="e" 
d="M1024 0h-128h-128h-128h-128h-128h-128h-128v128h-128v128v128v128v128v128v128v128v128h128h128h128h128h128h128h128h128v-128h128v-128v-128v-128v-128v-128v-128v-128v-128h-128zM896 128h128v128h-128h-128h-128h-128v128v128h128h128h128h128v128h-128h-128h-128
h-128v128h128h128h128h128v128h-128h-128h-128h-128h-128h-128v-128v-128v-128v-128v-128v-128h128h128h128h128h128z" />
    <glyph glyph-name="f" unicode="f" 
d="M512 0h-128h-128h-128v128h-128v128v128v128v128v128v128v128v128h128h128h128h128h128h128h128h128v-128h128v-128v-128v-128v-128v-128h-128h-128h-128h-128v-128v-128v-128h-128zM384 128h128v128v128v128h128h128h128h128v128h-128h-128h-128h-128v128h128h128h128
h128v128h-128h-128h-128h-128h-128h-128v-128v-128v-128v-128v-128v-128h128z" />
    <glyph glyph-name="g" unicode="g" 
d="M1024 0h-128h-128h-128h-128h-128h-128h-128v128h-128v128v128v128v128v128v128v128v128h128h128h128h128h128h128h128h128v-128h128v-128v-128v-128v-128v-128v-128v-128v-128h-128zM896 128h128v128v128v128v128h-128h-128h-128v-128h128v-128v-128h-128h-128v128v128
v128v128h128h128h128h128v128h-128h-128h-128h-128h-128h-128v-128v-128v-128v-128v-128v-128h128h128h128h128h128z" />
    <glyph glyph-name="h" unicode="h" 
d="M1024 0h-128h-128h-128h-128h-128h-128h-128v128h-128v128v128v128v128v128v128v128v128h128h128h128h128h128h128h128h128v-128h128v-128v-128v-128v-128v-128v-128v-128v-128h-128zM896 128h128v128v128v128v128v128v128h-128h-128v-128v-128h-128h-128v128v128h-128
h-128v-128v-128v-128v-128v-128v-128h128h128v128v128v128h128h128v-128v-128v-128h128z" />
    <glyph glyph-name="i" unicode="i" 
d="M1024 0h-128h-128h-128h-128h-128h-128h-128v128h-128v128v128v128h128h128h128v128h-128h-128v128h-128v128v128v128h128h128h128h128h128h128h128h128v-128h128v-128v-128v-128h-128h-128v-128h128v-128h128v-128v-128v-128h-128zM896 128h128v128h-128h-128v128v128
v128v128h128h128v128h-128h-128h-128h-128h-128h-128v-128h128h128v-128v-128v-128v-128h-128h-128v-128h128h128h128h128h128z" />
    <glyph glyph-name="j" unicode="j" 
d="M1024 0h-128h-128h-128h-128h-128h-128h-128v128h-128v128v128v128h128h128h128h128v128v128v128v128v128h128h128h128h128v-128h128v-128v-128v-128v-128v-128v-128v-128v-128h-128zM896 128h128v128v128v128v128v128v128h-128h-128v-128v-128v-128v-128v-128h-128h-128
h-128h-128v-128h128h128h128h128h128z" />
    <glyph glyph-name="k" unicode="k" 
d="M1024 0h-128h-128h-128h-128h-128h-128h-128v128h-128v128v128v128v128v128v128v128v128h128h128h128h128h128h128h128h128v-128h128v-128v-128v-128v-128v-128v-128v-128v-128h-128zM896 128h128v128v128v128h-128v128h128v128v128h-128h-128v-128v-128h-128h-128v128
v128h-128h-128v-128v-128v-128v-128v-128v-128h128h128v128v128v128h128h128v-128v-128v-128h128z" />
    <glyph glyph-name="l" unicode="l" 
d="M1024 0h-128h-128h-128h-128h-128h-128h-128v128h-128v128v128v128v128v128v128v128v128h128h128h128h128v-128h128v-128v-128v-128v-128h128h128h128v-128h128v-128v-128v-128h-128zM896 128h128v128h-128h-128h-128h-128v128v128v128v128v128h-128h-128v-128v-128v-128
v-128v-128v-128h128h128h128h128h128z" />
    <glyph glyph-name="m" unicode="m" horiz-adv-x="1536" 
d="M1280 0h-128h-128h-128h-128h-128h-128h-128h-128h-128v128h-128v128v128v128v128v128v128v128v128h128h128h128h128h128h128h128h128h128h128v-128h128v-128v-128v-128v-128v-128v-128v-128v-128h-128zM1152 128h128v128v128v128v128v128v128h-128h-128h-128h-128h-128
h-128h-128h-128v-128v-128v-128v-128v-128v-128h128h128v128v128v128v128v128h128v-128v-128v-128v-128v-128h128h128v128v128v128v128v128h128v-128v-128v-128v-128v-128h128z" />
    <glyph glyph-name="n" unicode="n" 
d="M1024 0h-128h-128h-128h-128h-128h-128h-128v128h-128v128v128v128v128v128v128v128v128h128h128h128h128h128h128h128h128v-128h128v-128v-128v-128v-128v-128v-128v-128v-128h-128zM896 128h128v128v128v128v128v128v128h-128h-128h-128h-128h-128h-128v-128v-128v-128
v-128v-128v-128h128h128v128v128v128v128v128h128h128v-128v-128v-128v-128v-128h128z" />
    <glyph glyph-name="o" unicode="o" 
d="M1024 0h-128h-128h-128h-128h-128h-128h-128v128h-128v128v128v128v128v128v128v128v128h128h128h128h128h128h128h128h128v-128h128v-128v-128v-128v-128v-128v-128v-128v-128h-128zM896 128h128v128v128v128v128v128v128h-128h-128h-128h-128h-128h-128v-128v-128v-128
v-128v-128v-128h128h128h128h128h128zM640 256h-128v128v128v128v128h128h128v-128v-128v-128v-128h-128z" />
    <glyph glyph-name="p" unicode="p" 
d="M512 0h-128h-128h-128v128h-128v128v128v128v128v128v128v128v128h128h128h128h128h128h128h128h128v-128h128v-128v-128v-128v-128v-128v-128h-128h-128h-128h-128v-128v-128h-128zM384 128h128v128v128h128h128h128h128v128v128v128v128h-128h-128h-128h-128h-128h-128
v-128v-128v-128v-128v-128v-128h128zM640 512h-128v128v128h128h128v-128v-128h-128z" />
    <glyph glyph-name="q" unicode="q" 
d="M1024 0h-128h-128h-128v128h-128h-128h-128h-128v128h-128v128v128v128v128v128v128v128h128h128h128h128h128h128h128h128v-128h128v-128v-128v-128v-128v-128v-128v-128v-128h-128zM896 128h128v128v128v128v128v128v128h-128h-128h-128h-128h-128h-128v-128v-128v-128
v-128v-128h128h128h128h128v-128h128zM640 384h-128v128v128v128h128h128v-128v-128v-128h-128z" />
    <glyph glyph-name="r" unicode="r" 
d="M1024 0h-128h-128h-128h-128h-128h-128h-128v128h-128v128v128v128v128v128v128v128v128h128h128h128h128h128h128h128h128v-128h128v-128v-128v-128v-128v-128v-128v-128v-128h-128zM896 128h128v128v128h-128v128h128v128v128v128h-128h-128h-128h-128h-128h-128v-128
v-128v-128v-128v-128v-128h128h128v128v128h128h128v-128v-128h128zM640 512h-128v128v128h128h128v-128v-128h-128z" />
    <glyph glyph-name="s" unicode="s" 
d="M1024 0h-128h-128h-128h-128h-128h-128h-128v128h-128v128v128v128v128v128v128v128v128h128h128h128h128h128h128h128h128v-128h128v-128v-128v-128v-128v-128v-128v-128v-128h-128zM896 128h128v128v128v128v128h-128h-128h-128h-128v128h128h128h128h128v128h-128
h-128h-128h-128h-128h-128v-128v-128v-128v-128h128h128h128h128v-128h-128h-128h-128h-128v-128h128h128h128h128h128z" />
    <glyph glyph-name="t" unicode="t" 
d="M768 0h-128h-128h-128v128h-128v128v128v128v128h-128v128h-128v128v128v128h128h128h128h128h128h128h128h128v-128h128v-128v-128v-128h-128h-128v-128v-128v-128v-128v-128h-128zM640 128h128v128v128v128v128v128h128h128v128h-128h-128h-128h-128h-128h-128v-128
h128h128v-128v-128v-128v-128v-128h128z" />
    <glyph glyph-name="u" unicode="u" 
d="M1024 0h-128h-128h-128h-128h-128h-128h-128v128h-128v128v128v128v128v128v128v128v128h128h128h128h128h128h128h128h128v-128h128v-128v-128v-128v-128v-128v-128v-128v-128h-128zM896 128h128v128v128v128v128v128v128h-128h-128v-128v-128v-128v-128v-128h-128h-128
v128v128v128v128v128h-128h-128v-128v-128v-128v-128v-128v-128h128h128h128h128h128z" />
    <glyph glyph-name="v" unicode="v" 
d="M768 0h-128h-128h-128v128h-128v128h-128v128h-128v128v128v128v128v128v128h128h128h128h128h128h128h128h128v-128h128v-128v-128v-128v-128v-128v-128h-128v-128h-128v-128h-128zM640 128h128v128h128v128h128v128v128v128v128h-128h-128v-128v-128v-128v-128h-128
h-128v128v128v128v128h-128h-128v-128v-128v-128v-128h128v-128h128v-128h128z" />
    <glyph glyph-name="w" unicode="w" horiz-adv-x="1536" 
d="M896 256v128v128v128v128v128h-128h-128v-128v-128v-128v-128v-128h-128v128v128v128v128v128h-128h-128v-128v-128v-128v-128v-128v-128h128h128h128h128h128h128h128h128v128v128v128v128v128v128h-128h-128v-128v-128v-128v-128v-128h-128zM1280 0h-128h-128h-128
h-128h-128h-128h-128h-128h-128v128h-128v128v128v128v128v128v128v128v128h128h128h128h128h128h128h128h128h128h128v-128h128v-128v-128v-128v-128v-128v-128v-128v-128h-128z" />
    <glyph glyph-name="x" unicode="x" 
d="M1024 0h-128h-128h-128h-128h-128h-128h-128v128h-128v128v128v128v128v128v128v128v128h128h128h128h128h128h128h128h128v-128h128v-128v-128v-128v-128v-128v-128v-128v-128h-128zM896 128h128v128v128v128h-128v128h128v128v128h-128h-128v-128v-128h-128h-128v128
v128h-128h-128v-128v-128h128v-128h-128v-128v-128v-128h128h128v128v128v128h128h128v-128v-128v-128h128z" />
    <glyph glyph-name="y" unicode="y" 
d="M768 0h-128h-128h-128v128h-128v128v128h-128v128h-128v128v128v128v128v128h128h128h128h128h128h128h128h128v-128h128v-128v-128v-128v-128v-128h-128h-128v-128v-128v-128h-128zM640 128h128v128v128v128h128h128v128v128v128h-128h-128v-128v-128h-128h-128v128v128
h-128h-128v-128v-128v-128h128h128v-128v-128v-128h128z" />
    <glyph glyph-name="z" unicode="z" 
d="M1024 0h-128h-128h-128h-128h-128h-128h-128v128h-128v128v128v128v128v128v128v128v128h128h128h128h128h128h128h128h128v-128h128v-128v-128v-128v-128v-128v-128v-128v-128h-128zM896 128h128v128h-128h-128h-128h-128h-128v128h128h128h128h128h128v128v128v128v128
h-128h-128h-128h-128h-128h-128v-128h128h128h128h128h128v-128h-128h-128h-128h-128h-128v-128v-128v-128v-128h128h128h128h128h128z" />
    <glyph glyph-name="braceleft" unicode="{" horiz-adv-x="1024" 
d="M768 0h-128h-128h-128h-128v128h-128v128v128h-128v128v128v128v128h128v128v128h128h128h128h128h128v-128h128v-128v-128v-128h-128v-128v-128h128v-128v-128v-128h-128zM640 128h128v128h-128v128v128v128v128h128v128h-128h-128h-128v-128v-128h-128v-128v-128h128
v-128v-128h128h128z" />
    <glyph glyph-name="bar" unicode="|" horiz-adv-x="1024" 
d="M768 -128h-128h-128h-128v128h-128v128v128v128v128v128v128v128v128v128v128h128h128h128h128v-128h128v-128v-128v-128v-128v-128v-128v-128v-128v-128v-128h-128zM640 0h128v128v128v128v128v128v128v128v128h-128h-128v-128v-128v-128v-128v-128v-128v-128v-128h128z
" />
    <glyph glyph-name="braceright" unicode="}" horiz-adv-x="1024" 
d="M640 0h-128h-128h-128h-128v128h-128v128v128v128h128h128v128h-128v128h-128v128v128v128h128h128h128h128h128v-128h128v-128v-128h128v-128v-128v-128v-128h-128v-128v-128h-128zM512 128h128v128v128h128v128v128h-128v128v128h-128h-128h-128v-128h128v-128v-128
v-128v-128h-128v-128h128h128z" />
    <glyph glyph-name="asciitilde" unicode="~" 
d="M768 384v128v128v128h-128h-128h-128h-128v-128v-128v-128v-128h128v128v128v128h128v-128v-128v-128h128h128h128h128v128v128v128v128h-128v-128v-128v-128h-128zM1024 128h-128h-128h-128h-128h-128h-128h-128v128h-128v128v128v128v128v128v128h128h128h128h128h128
h128h128h128v-128h128v-128v-128v-128v-128v-128v-128h-128z" />
    <glyph glyph-name="uni00A0" unicode="&#xa0;" horiz-adv-x="640" 
 />
    <glyph glyph-name="uni3000" unicode="&#x3000;" horiz-adv-x="2048" 
 />
    <glyph glyph-name="uniE0FF" unicode="&#xe0ff;" horiz-adv-x="1792" 
d="M896 768v128h-128v-128h-128v128h128v128h128v128h128v-128v-128v-128h-128zM384 768v128v128v128h128v-128h128v-128h-128v-128h-128zM1536 0h-128h-128h-128h-128h-128h-128h-128h-128h-128h-128h-128v128h-128v128v128v128v128v128v128v128v128v128v128v128h128h128
h128h128h128h128h128h128h128h128h128h128v-128h128v-128v-128v-128v-128v-128v-128v-128v-128v-128v-128v-128h-128zM1408 128h128v128v128v128v128v128v128v128v128v128h-128h-128h-128h-128h-128h-128h-128h-128h-128h-128v-128v-128v-128v-128v-128v-128v-128v-128v-128
h128h128h128h128h128h128h128h128h128zM1024 256h-128v128h128v128h-128v128h128h128v-128h128v-128h-128v-128h-128zM640 256h-128h-128v128v128v128h128h128h128v-128v-128v-128h-128zM640 384v128h-128v-128h128zM1280 768h-128v128v128v128h128v-128h128v-128v-128h-128
z" />
  </font>
</defs>
</svg>
